{
	"asset":{
		"generator":"Khronos glTF Blender I/O v3.5.30",
		"version":"2.0"
	},
	"scene":0,
	"scenes":[
		{
			"name":"Scene",
			"nodes":[
				0
			]
		}
	],
	"nodes":[
		{
			"mesh":0,
			"name":"Text",
			"scale":[
				0.9096124172210693,
				0.9096124172210693,
				0.9096124172210693
			]
		}
	],
	"meshes":[
		{
			"name":"Text",
			"primitives":[
				{
					"attributes":{
						"POSITION":0,
						"TEXCOORD_0":1,
						"NORMAL":2
					},
					"indices":3
				}
			]
		}
	],
	"accessors":[
		{
			"bufferView":0,
			"componentType":5126,
			"count":6523,
			"max":[
				1.9445000886917114,
				0.09999999403953552,
				2.2300000190734863
			],
			"min":[
				-1.9275000095367432,
				-0.09999999403953552,
				-0.6820000410079956
			],
			"type":"VEC3"
		},
		{
			"bufferView":1,
			"componentType":5126,
			"count":6523,
			"type":"VEC2"
		},
		{
			"bufferView":2,
			"componentType":5126,
			"count":6523,
			"type":"VEC3"
		},
		{
			"bufferView":3,
			"componentType":5123,
			"count":19272,
			"type":"SCALAR"
		}
	],
	"bufferViews":[
		{
			"buffer":0,
			"byteLength":78276,
			"byteOffset":0,
			"target":34962
		},
		{
			"buffer":0,
			"byteLength":52184,
			"byteOffset":78276,
			"target":34962
		},
		{
			"buffer":0,
			"byteLength":78276,
			"byteOffset":130460,
			"target":34962
		},
		{
			"buffer":0,
			"byteLength":38544,
			"byteOffset":208736,
			"target":34963
		}
	],
	"buffers":[
		{
			"byteLength":247280,
			"uri":"data:application/octet-stream;base64,"
		}
	]
}
